<svg width="64" height="64" viewBox="0 0 64 64" fill="none" xmlns="http://www.w3.org/2000/svg">
<path d="M32 53.9994C44.1503 53.9994 54 44.1497 54 31.9994C54 19.8491 44.1503 9.99939 32 9.99939C19.8497 9.99939 10 19.8491 10 31.9994C10 44.1497 19.8497 53.9994 32 53.9994Z" fill="#ECE9E5"/>
<path d="M31.9998 20V32" stroke="#A0937D" stroke-width="5" stroke-linecap="round" stroke-linejoin="round"/>
<path d="M42.3921 38.0003L31.9998 32.0003" stroke="#A0937D" stroke-width="5" stroke-linecap="round" stroke-linejoin="round"/>
<path d="M46.0421 24.9298H56.0421V14.9298" stroke="#A0937D" stroke-width="5" stroke-linecap="round" stroke-linejoin="round"/>
<path d="M47.5564 47.5558C44.4796 50.6325 40.5596 52.7278 36.292 53.5767C32.0244 54.4256 27.6009 53.9899 23.581 52.3247C19.561 50.6596 16.1251 47.8398 13.7077 44.2219C11.2903 40.6041 10 36.3506 10 31.9994C10 27.6482 11.2903 23.3947 13.7077 19.7769C16.1251 16.159 19.561 13.3392 23.581 11.674C27.6009 10.0089 32.0244 9.57325 36.292 10.4221C40.5596 11.271 44.4796 13.3663 47.5564 16.443L56.0416 24.9283" stroke="#A0937D" stroke-width="5" stroke-linecap="round" stroke-linejoin="round"/>
</svg>
