<svg width="24" height="24" viewBox="0 0 24 24" fill="none" xmlns="http://www.w3.org/2000/svg">
<g id="MapPin">
<path id="Vector" d="M11.9993 1.5C9.81203 1.5026 7.71512 2.37262 6.1685 3.91924C4.62189 5.46585 3.75186 7.56276 3.74927 9.75C3.74927 16.8091 11.2493 22.1411 11.5686 22.3645C11.6949 22.4527 11.8452 22.5 11.9993 22.5C12.1533 22.5 12.3036 22.4527 12.4299 22.3645C12.7493 22.1411 20.2493 16.8091 20.2493 9.75C20.2467 7.56276 19.3766 5.46585 17.83 3.91924C16.2834 2.37262 14.1865 1.50259 11.9993 1.5ZM11.9998 6.75027C12.5932 6.75027 13.1732 6.92622 13.6665 7.25586C14.1599 7.58551 14.5444 8.05404 14.7715 8.60222C14.9985 9.1504 15.0579 9.7536 14.9422 10.3355C14.8264 10.9175 14.5407 11.452 14.1211 11.8716C13.7016 12.2912 13.167 12.5769 12.5851 12.6926C12.0031 12.8084 11.3999 12.749 10.8518 12.5219C10.3036 12.2948 9.83505 11.9103 9.50541 11.417C9.17576 10.9236 8.99982 10.3436 8.99982 9.75027C8.99981 9.3563 9.07739 8.96619 9.22816 8.60221C9.37892 8.23823 9.59989 7.9075 9.87847 7.62893C10.157 7.35035 10.4878 7.12937 10.8518 6.97861C11.2157 6.82785 11.6058 6.75026 11.9998 6.75027Z" fill="#1E69B8"/>
</g>
</svg>
