<svg width="24" height="24" viewBox="0 0 24 24" fill="none" xmlns="http://www.w3.org/2000/svg">
<rect width="24" height="24" fill="#E5E7FE"/>
<g id="Homepage" clip-path="url(#clip0_0_1)">
<rect width="1440" height="4840" transform="translate(-1110 -4543)" fill="white"/>
<g id="Footer">
<rect width="1440" height="472" transform="translate(-1110 -175)" fill="#0B0D17"/>
<g id="Frame 99">
<g id="Frame 88">
<g id="Frame 85">
<g id="Message">
<g id="Iconly/Bold/Message">
<g id="Message_2">
<path id="Vector" d="M16.9393 3C18.2803 3 19.5703 3.53 20.5193 4.481C21.4693 5.43 22.0003 6.71 22.0003 8.05V15.95C22.0003 18.74 19.7303 21 16.9393 21H7.06031C4.26931 21 2.00031 18.74 2.00031 15.95V8.05C2.00031 5.26 4.25931 3 7.06031 3H16.9393ZM18.0703 8.2C17.8603 8.189 17.6603 8.26 17.5093 8.4L13.0003 12C12.4203 12.481 11.5893 12.481 11.0003 12L6.50031 8.4C6.18931 8.17 5.75931 8.2 5.50031 8.47C5.23031 8.74 5.2003 9.17 5.42931 9.47L5.56031 9.6L10.1103 13.15C10.6703 13.59 11.3493 13.83 12.0603 13.83C12.7693 13.83 13.4603 13.59 14.0193 13.15L18.5303 9.54L18.6103 9.46C18.8493 9.17 18.8493 8.75 18.5993 8.46C18.4603 8.311 18.2693 8.22 18.0703 8.2Z" fill="#1E69B8"/>
</g>
</g>
</g>
</g>
</g>
</g>
</g>
</g>
<defs>
<clipPath id="clip0_0_1">
<rect width="1440" height="4840" fill="white" transform="translate(-1110 -4543)"/>
</clipPath>
</defs>
</svg>
