<svg width="64" height="64" viewBox="0 0 64 64" fill="none" xmlns="http://www.w3.org/2000/svg">
<path d="M53.984 18.425L32.984 6.55542C32.6838 6.3857 32.3448 6.29651 31.9999 6.29651C31.655 6.29651 31.316 6.3857 31.0158 6.55542L10.0158 18.425C9.70743 18.5992 9.45091 18.8523 9.27243 19.1582C9.09394 19.4641 8.99989 19.8119 8.99988 20.1661V43.8322C8.99989 44.1864 9.09394 44.5342 9.27243 44.8401C9.45091 45.146 9.70743 45.3991 10.0157 45.5734L31.0157 57.4429C31.316 57.6126 31.655 57.7018 31.9999 57.7018C32.3448 57.7018 32.6838 57.6126 32.984 57.4429L53.984 45.5734C54.2923 45.3991 54.5488 45.146 54.7273 44.8401C54.9058 44.5342 54.9999 44.1864 54.9999 43.8322V20.1661C54.9999 19.8119 54.9058 19.4641 54.7273 19.1582C54.5489 18.8523 54.2923 18.5992 53.984 18.425ZM31.9999 40.9991C30.2198 40.9991 28.4798 40.4713 26.9997 39.4824C25.5197 38.4934 24.3661 37.0878 23.685 35.4433C23.0038 33.7988 22.8255 31.9892 23.1728 30.2433C23.5201 28.4975 24.3772 26.8939 25.6359 25.6352C26.8946 24.3765 28.4982 23.5193 30.2441 23.1721C31.9899 22.8248 33.7995 23.003 35.444 23.6842C37.0886 24.3654 38.4942 25.519 39.4831 26.999C40.472 28.4791 40.9999 30.2191 40.9999 31.9991C40.9999 33.181 40.7671 34.3514 40.3148 35.4433C39.8625 36.5352 39.1996 37.5274 38.3638 38.3631C37.5281 39.1988 36.536 39.8618 35.444 40.3141C34.3521 40.7664 33.1818 40.9991 31.9999 40.9991Z" fill="#FDEDD9"/>
<path d="M54.9999 43.8322V20.1661C54.9999 19.8119 54.9058 19.4641 54.7273 19.1582C54.5488 18.8523 54.2923 18.5992 53.984 18.4249L32.984 6.55538C32.6838 6.38569 32.3448 6.29651 31.9999 6.29651C31.655 6.29651 31.316 6.38569 31.0158 6.55538L10.0158 18.4249C9.70743 18.5992 9.45091 18.8523 9.27242 19.1582C9.09393 19.4641 8.99988 19.8119 8.99988 20.1661V43.8322C8.99988 44.1864 9.09393 44.5342 9.27242 44.8401C9.45091 45.146 9.70743 45.3991 10.0158 45.5733L31.0158 57.4429C31.316 57.6126 31.655 57.7018 31.9999 57.7018C32.3448 57.7018 32.6838 57.6126 32.984 57.4429L53.984 45.5733C54.2923 45.3991 54.5489 45.146 54.7273 44.8401C54.9058 44.5342 54.9999 44.1864 54.9999 43.8322V43.8322Z" stroke="#F4A442" stroke-width="5" stroke-linecap="round" stroke-linejoin="round"/>
<path d="M32 41.0004C36.9706 41.0004 41 36.9709 41 32.0004C41 27.0298 36.9706 23.0004 32 23.0004C27.0294 23.0004 23 27.0298 23 32.0004C23 36.9709 27.0294 41.0004 32 41.0004Z" stroke="#F4A442" stroke-width="5" stroke-linecap="round" stroke-linejoin="round"/>
</svg>
