<svg width="64" height="64" viewBox="0 0 64 64" fill="none" xmlns="http://www.w3.org/2000/svg">
<path d="M27 40C35.2843 40 42 33.2843 42 25C42 16.7157 35.2843 10 27 10C18.7157 10 12 16.7157 12 25C12 33.2843 18.7157 40 27 40Z" fill="#D7EDE7"/>
<path d="M27 40C35.2843 40 42 33.2843 42 25C42 16.7157 35.2843 10 27 10C18.7157 10 12 16.7157 12 25C12 33.2843 18.7157 40 27 40Z" stroke="#39A388" stroke-width="5" stroke-miterlimit="10"/>
<path d="M5.55078 49.9995C8.17912 46.8681 11.4613 44.3502 15.1666 42.6227C18.872 40.8952 22.9106 40 26.9989 40C31.0872 40 35.1258 40.8952 38.8312 42.6228C42.5365 44.3503 45.8186 46.8682 48.4469 49.9996" stroke="#39A388" stroke-width="5" stroke-linecap="round" stroke-linejoin="round"/>
<path d="M51.2414 37.4308L53.9995 39.1783C54.3521 39.4017 54.7898 39.0694 54.6852 38.6579L53.8883 35.5231C53.8659 35.4358 53.8685 35.3439 53.896 35.258C53.9234 35.1722 53.9746 35.0958 54.0435 35.0377L56.5169 32.979C56.8419 32.7086 56.6741 32.1692 56.2566 32.1421L53.0265 31.9325C52.9395 31.9262 52.8561 31.8954 52.7859 31.8436C52.7157 31.7918 52.6617 31.7212 52.6301 31.6399L51.4255 28.6062C51.3927 28.5199 51.3345 28.4456 51.2585 28.3931C51.1826 28.3407 51.0924 28.3126 51.0001 28.3126C50.9078 28.3126 50.8177 28.3407 50.7417 28.3931C50.6657 28.4456 50.6075 28.5199 50.5748 28.6062L49.3701 31.6399C49.3385 31.7212 49.2845 31.7918 49.2143 31.8436C49.1442 31.8954 49.0607 31.9262 48.9737 31.9325L45.7437 32.1421C45.3261 32.1692 45.1584 32.7086 45.4834 32.979L47.9567 35.0377C48.0257 35.0958 48.0768 35.1722 48.1043 35.258C48.1317 35.3439 48.1344 35.4358 48.1119 35.5231L47.3729 38.4303C47.2473 38.9241 47.7726 39.3228 48.1957 39.0547L50.7589 37.4308C50.831 37.3849 50.9147 37.3605 51.0001 37.3605C51.0856 37.3605 51.1693 37.3849 51.2414 37.4308V37.4308Z" stroke="#39A388" stroke-width="2" stroke-linecap="round" stroke-linejoin="round"/>
</svg>
